<svg xmlns="http://www.w3.org/2000/svg" viewBox="0 0 200 200" role="img" aria-label="Casa Rodica">
  <circle cx="100" cy="100" r="99" fill="#F6F1E7"/>
  <circle cx="100" cy="100" r="94" fill="none" stroke="#2F4733" stroke-width="3"/>
  <circle cx="100" cy="100" r="86" fill="none" stroke="#C9A24B" stroke-width="1.5"/>
  <g fill="#e6bccb">
    <ellipse cx="100" cy="63.5" rx="19" ry="44" transform="rotate(0 100 100)"/>
    <ellipse cx="100" cy="63.5" rx="19" ry="44" transform="rotate(60 100 100)"/>
    <ellipse cx="100" cy="63.5" rx="19" ry="44" transform="rotate(120 100 100)"/>
    <ellipse cx="100" cy="63.5" rx="19" ry="44" transform="rotate(180 100 100)"/>
    <ellipse cx="100" cy="63.5" rx="19" ry="44" transform="rotate(240 100 100)"/>
    <ellipse cx="100" cy="63.5" rx="19" ry="44" transform="rotate(300 100 100)"/>
  </g>
  <g fill="#C4677B">
    <ellipse cx="100" cy="76" rx="17" ry="31.5" transform="rotate(30 100 100)"/>
    <ellipse cx="100" cy="76" rx="17" ry="31.5" transform="rotate(90 100 100)"/>
    <ellipse cx="100" cy="76" rx="17" ry="31.5" transform="rotate(150 100 100)"/>
    <ellipse cx="100" cy="76" rx="17" ry="31.5" transform="rotate(210 100 100)"/>
    <ellipse cx="100" cy="76" rx="17" ry="31.5" transform="rotate(270 100 100)"/>
    <ellipse cx="100" cy="76" rx="17" ry="31.5" transform="rotate(330 100 100)"/>
  </g>
  <circle cx="100" cy="100" r="12" fill="#C9A24B"/>
  <circle cx="100" cy="100" r="5.5" fill="#2F4733"/>
  <g fill="#2F4733">
    <path d="M-25 0 Q0 -10 25 0 Q0 10 -25 0 Z" transform="translate(26 134) rotate(2)"/>
    <path d="M-25 0 Q0 -10 25 0 Q0 10 -25 0 Z" transform="translate(174 134) rotate(-2)"/>
  </g>
</svg>
