<svg xmlns="http://www.w3.org/2000/svg" viewBox="0 0 200 200" role="img" aria-label="Casa Rodica">
  <circle cx="100" cy="100" r="99" fill="#F6F1E7"/>
  <circle cx="100" cy="100" r="94" fill="none" stroke="#2F4733" stroke-width="3"/>
  <circle cx="100" cy="100" r="86" fill="none" stroke="#C9A24B" stroke-width="1.5"/>
  <g fill="#2F4733">
    <path d="M-22 0 Q0 -8 22 0 Q0 8 -22 0 Z" transform="translate(54 152) rotate(-18)"/>
    <path d="M-22 0 Q0 -8 22 0 Q0 8 -22 0 Z" transform="translate(146 152) rotate(18)"/>
  </g>
  <g fill="#E2B6C6">
    <ellipse cx="100" cy="70" rx="13" ry="33" transform="rotate(0 100 100)"/>
    <ellipse cx="100" cy="70" rx="13" ry="33" transform="rotate(60 100 100)"/>
    <ellipse cx="100" cy="70" rx="13" ry="33" transform="rotate(120 100 100)"/>
    <ellipse cx="100" cy="70" rx="13" ry="33" transform="rotate(180 100 100)"/>
    <ellipse cx="100" cy="70" rx="13" ry="33" transform="rotate(240 100 100)"/>
    <ellipse cx="100" cy="70" rx="13" ry="33" transform="rotate(300 100 100)"/>
  </g>
  <g fill="#C4677B">
    <ellipse cx="100" cy="77" rx="17.5" ry="25" transform="rotate(30 100 100)"/>
    <ellipse cx="100" cy="77" rx="17.5" ry="25" transform="rotate(90 100 100)"/>
    <ellipse cx="100" cy="77" rx="17.5" ry="25" transform="rotate(150 100 100)"/>
    <ellipse cx="100" cy="77" rx="17.5" ry="25" transform="rotate(210 100 100)"/>
    <ellipse cx="100" cy="77" rx="17.5" ry="25" transform="rotate(270 100 100)"/>
    <ellipse cx="100" cy="77" rx="17.5" ry="25" transform="rotate(330 100 100)"/>
  </g>
  <circle cx="100" cy="100" r="15" fill="#C9A24B"/>
  <circle cx="100" cy="100" r="6" fill="#2F4733"/>
</svg>
