<svg xmlns="http://www.w3.org/2000/svg" viewBox="0 0 200 200" role="img" aria-label="Casa Rodica">
  <circle cx="100" cy="100" r="99" fill="#F6F1E7"/>
  <circle cx="100" cy="100" r="94" fill="none" stroke="#2F4733" stroke-width="3"/>
  <circle cx="100" cy="100" r="86" fill="none" stroke="#C9A24B" stroke-width="1.5"/>
  <g fill="#2F4733">
    <path d="M-21 0 Q0 -7 21 0 Q0 7 -21 0 Z" transform="translate(66 156) rotate(-16)"/>
    <path d="M-21 0 Q0 -7 21 0 Q0 7 -21 0 Z" transform="translate(134 156) rotate(16)"/>
  </g>
  <g fill="#E2B6C6">
    <path d="M0 4 C-20 -24 -20 -58 0 -70 C20 -58 20 -24 0 4 Z" transform="translate(100 100) rotate(0)"/>
    <path d="M0 4 C-20 -24 -20 -58 0 -70 C20 -58 20 -24 0 4 Z" transform="translate(100 100) rotate(60)"/>
    <path d="M0 4 C-20 -24 -20 -58 0 -70 C20 -58 20 -24 0 4 Z" transform="translate(100 100) rotate(120)"/>
    <path d="M0 4 C-20 -24 -20 -58 0 -70 C20 -58 20 -24 0 4 Z" transform="translate(100 100) rotate(180)"/>
    <path d="M0 4 C-20 -24 -20 -58 0 -70 C20 -58 20 -24 0 4 Z" transform="translate(100 100) rotate(240)"/>
    <path d="M0 4 C-20 -24 -20 -58 0 -70 C20 -58 20 -24 0 4 Z" transform="translate(100 100) rotate(300)"/>
  </g>
  <g fill="#C4677B">
    <circle cx="100" cy="74" r="22" transform="rotate(30 100 100)"/>
    <circle cx="100" cy="74" r="22" transform="rotate(90 100 100)"/>
    <circle cx="100" cy="74" r="22" transform="rotate(150 100 100)"/>
    <circle cx="100" cy="74" r="22" transform="rotate(210 100 100)"/>
    <circle cx="100" cy="74" r="22" transform="rotate(270 100 100)"/>
    <circle cx="100" cy="74" r="22" transform="rotate(330 100 100)"/>
  </g>
  <circle cx="100" cy="100" r="17" fill="#C9A24B"/>
  <circle cx="100" cy="100" r="7" fill="#2F4733"/>
</svg>
